<svg width="107" height="107" viewBox="0 0 107 107" fill="none" xmlns="http://www.w3.org/2000/svg">
<path d="M89.1667 23.1833H83.8167V1.78333C83.8167 0.798494 83.0182 0 82.0333 0H60.6333C59.6485 0 58.85 0.798494 58.85 1.78333V23.1833H55.2833V10.7C55.2833 10.2272 55.0952 9.7735 54.7609 9.43913L45.8442 0.522461C45.1476 -0.173283 44.0191 -0.173283 43.3225 0.522461L34.4058 9.43913C34.0714 9.7735 33.8833 10.2272 33.8833 10.7V23.1833H28.5333C21.6429 23.192 16.0587 28.7763 16.05 35.6667V94.5167C16.0587 101.407 21.6429 106.991 28.5333 107H89.1667C90.1515 107 90.95 106.202 90.95 105.217V24.9667C90.95 23.9818 90.1515 23.1833 89.1667 23.1833ZM87.3833 82.0333H33.8833V26.75H87.3833V82.0333ZM62.4167 3.56667H80.25V8.91667H76.6833V12.4833H80.25V16.05H73.1167V19.6167H80.25V23.1833H62.4167V3.56667ZM46.3667 23.1833V12.4833H51.7167V23.1833H46.3667ZM44.5833 4.30508L49.1949 8.91667H39.9717L44.5833 4.30508ZM37.45 12.4833H42.8V23.1833H37.45V12.4833ZM19.6167 85.7872V35.6667C19.6228 30.7442 23.6109 26.7561 28.5333 26.75H30.3167V82.0333H28.5333C28.1049 82.0333 27.6774 82.056 27.2507 82.0995C27.087 82.1152 26.9302 82.1491 26.7674 82.1727C26.5131 82.2101 26.2563 82.2406 26.0064 82.292C25.8139 82.3311 25.6284 82.3886 25.4377 82.4382C25.247 82.4879 25.0111 82.5384 24.8047 82.6037C24.5974 82.6699 24.4068 82.7482 24.2091 82.8214C24.0106 82.8945 23.8347 82.952 23.6544 83.0286C23.4742 83.1052 23.2582 83.2176 23.0623 83.3134C22.8942 83.3961 22.7218 83.471 22.559 83.5598C22.3648 83.6669 22.1811 83.7879 21.9921 83.9037C21.8371 84.0004 21.676 84.091 21.5245 84.1928C21.3469 84.3174 21.1684 84.4549 20.9986 84.5873C20.8523 84.6996 20.7008 84.805 20.5597 84.9208C20.4195 85.0366 20.241 85.209 20.0825 85.3553C19.9232 85.5016 19.8021 85.6052 19.6715 85.7376L19.6167 85.7872ZM28.5333 103.433C23.6126 103.425 19.6254 99.4374 19.6167 94.5167C19.6228 89.5942 23.6109 85.6061 28.5333 85.6H87.3833V92.7333H28.5333V96.3H87.3833V103.433H28.5333Z" fill="url(#paint0_linear)"/>
<path d="M80.25 37.45H41.0167C40.0318 37.45 39.2333 38.2485 39.2333 39.2333V57.0667C39.2333 58.0515 40.0318 58.85 41.0167 58.85H80.25C81.2348 58.85 82.0333 58.0515 82.0333 57.0667V39.2333C82.0333 38.2485 81.2348 37.45 80.25 37.45ZM78.4667 55.2833H42.8V41.0167H78.4667V55.2833Z" fill="url(#paint1_linear)"/>
<defs>
<linearGradient id="paint0_linear" x1="53.5" y1="0" x2="53.5" y2="107" gradientUnits="userSpaceOnUse">
<stop stop-color="#680013"/>
<stop offset="1"/>
</linearGradient>
<linearGradient id="paint1_linear" x1="60.6333" y1="37.45" x2="60.6333" y2="58.85" gradientUnits="userSpaceOnUse">
<stop stop-color="#680013"/>
<stop offset="1"/>
</linearGradient>
</defs>
</svg>
