<svg width="117" height="107" viewBox="0 0 117 107" fill="none" xmlns="http://www.w3.org/2000/svg">
<path d="M85.1843 64.4293C84.855 63.4219 83.5003 62.9509 82.1091 62.9509C80.7545 62.9509 79.3998 63.4219 79.0705 64.4293L72.0043 85.5496C71.9678 85.6843 71.9313 85.8182 71.9313 85.8851C71.9313 86.9603 73.6518 87.6982 74.9335 87.6982C75.739 87.6982 76.3611 87.4639 76.5445 86.8256L77.9347 82.3594H86.3191L87.7112 86.8256C87.8937 87.4639 88.5158 87.6982 89.3213 87.6982C90.603 87.6982 92.3235 86.9268 92.3235 85.8851C92.3235 85.7847 92.287 85.6835 92.2505 85.5496L85.1843 64.4293ZM78.9236 78.934L82.1083 68.6261L85.2947 78.934H78.9236Z" fill="black"/>
<path d="M104.093 43.65H69.0697V29.9305L80.4519 22.474C81.3499 21.8854 81.8831 20.936 81.8831 19.9237C81.8831 18.9106 81.3499 17.9612 80.4519 17.3726L68.9327 9.82635C68.0328 4.27357 62.8001 0 56.5003 0H12.5704C5.63855 0 0 5.17155 0 11.5292V51.8216C0 58.1785 5.63855 63.35 12.5704 63.35H47.5925V77.0695L36.2104 84.526C35.3123 85.1146 34.7792 86.0648 34.7792 87.0771C34.7792 88.0894 35.3123 89.0396 36.2104 89.6274L47.7296 97.1737C48.6295 102.726 53.8621 107 60.162 107H104.093C111.024 107 116.662 101.828 116.662 95.4708V55.1792C116.662 48.8215 111.024 43.65 104.093 43.65ZM12.5704 57.0805C9.40796 57.0805 6.83568 54.7213 6.83568 51.8208V11.5284C6.83568 8.62877 9.40796 6.26953 12.5704 6.26953H56.5003C59.6618 6.26953 62.2341 8.62877 62.2341 11.5284C62.2341 12.5415 62.7672 13.4917 63.6653 14.0795L72.5846 19.9229L63.6653 25.7663C62.7672 26.3549 62.2341 27.3051 62.2341 28.3174V43.65H60.162C53.2311 43.65 47.5925 48.8215 47.5925 55.1784V57.0805H12.5704ZM109.827 95.4708C109.827 98.3712 107.254 100.73 104.093 100.73H60.162C57.0005 100.73 54.4282 98.3712 54.4282 95.4708C54.4282 94.4585 53.8951 93.5083 52.997 92.9205L44.0777 87.0771L52.997 81.2337C53.8951 80.6451 54.4282 79.6949 54.4282 78.6826V55.1792C54.4282 52.2788 57.0005 49.9195 60.162 49.9195H65.643H65.6519H65.6608H104.093C107.254 49.9195 109.827 52.2788 109.827 55.1792V95.4708Z" fill="url(#paint0_linear)"/>
<path d="M45.0363 28.8978C46.0999 28.8978 46.9633 28.1059 46.9633 27.1296C46.9633 26.1532 46.0999 25.3614 45.0363 25.3614H36.4623V21.069C36.4623 20.0927 35.599 19.3008 34.5345 19.3008C33.4708 19.3008 32.6075 20.0927 32.6075 21.069V25.3614H24.0335C22.9699 25.3614 22.1065 26.1532 22.1065 27.1296C22.1065 28.1059 22.9699 28.8978 24.0335 28.8978H26.6903C27.1149 32.631 28.8701 36.0049 31.51 38.618C29.3214 39.8197 26.7651 40.5136 24.0335 40.5136C22.9699 40.5136 22.1065 41.3046 22.1065 42.281C22.1065 43.2573 22.9699 44.0492 24.0335 44.0492C27.9337 44.0492 31.5519 42.9308 34.5345 41.0287C37.5179 42.9308 41.136 44.0492 45.0363 44.0492C46.0999 44.0492 46.9633 43.2573 46.9633 42.281C46.9633 41.3046 46.0999 40.5136 45.0363 40.5136C42.3047 40.5136 39.7484 39.8213 37.5598 38.618C40.1997 36.0049 41.9549 32.631 42.3795 28.8978H45.0363ZM34.5345 36.409C32.4259 34.4016 30.9938 31.795 30.5746 28.8978H38.4952C38.076 31.795 36.6439 34.4016 34.5345 36.409Z" fill="black"/>
<defs>
<linearGradient id="paint0_linear" x1="58.3311" y1="0" x2="58.3311" y2="107" gradientUnits="userSpaceOnUse">
<stop stop-color="#680013"/>
<stop offset="1"/>
</linearGradient>
</defs>
</svg>
