<svg width="81" height="107" viewBox="0 0 81 107" fill="none" xmlns="http://www.w3.org/2000/svg">
<path d="M78.8645 0H2.13147C0.954474 0 0 0.954261 0 2.13147V104.869C0 106.046 0.954474 107 2.13147 107H78.8645C80.0415 107 80.996 106.046 80.996 104.869V2.13147C80.996 0.954261 80.0415 0 78.8645 0ZM76.7331 102.737H4.26295V4.26295H76.7331V102.737Z" fill="url(#paint0_linear)"/>
<path d="M13.8546 35.1693H32.3984C33.5754 35.1693 34.5299 34.2151 34.5299 33.0378V14.494C34.5299 13.3168 33.5754 12.3625 32.3984 12.3625H13.8546C12.6776 12.3625 11.7231 13.3168 11.7231 14.494V33.0378C11.7231 34.2151 12.6776 35.1693 13.8546 35.1693ZM15.9861 16.6255H30.267V30.9064H15.9861V16.6255Z" fill="url(#paint1_linear)"/>
<path d="M13.8546 65.2231H32.3984C33.5754 65.2231 34.5299 64.2688 34.5299 63.0916V59.0418C34.5299 57.8646 33.5754 56.9103 32.3984 56.9103C31.2214 56.9103 30.267 57.8646 30.267 59.0418V60.9601H15.9861V46.6793H29.2012C30.3782 46.6793 31.3327 45.725 31.3327 44.5478C31.3327 43.3706 30.3782 42.4163 29.2012 42.4163H13.8546C12.6776 42.4163 11.7231 43.3706 11.7231 44.5478V63.0916C11.7231 64.2688 12.6776 65.2231 13.8546 65.2231Z" fill="url(#paint2_linear)"/>
<path d="M13.8546 95.0638H32.3984C33.5754 95.0638 34.5299 94.1095 34.5299 92.9323V74.3885C34.5299 73.2112 33.5754 72.257 32.3984 72.257H13.8546C12.6776 72.257 11.7231 73.2112 11.7231 74.3885V92.9323C11.7231 94.1095 12.6776 95.0638 13.8546 95.0638ZM15.9861 76.5199H30.267V90.8008H15.9861V76.5199Z" fill="url(#paint3_linear)"/>
<path d="M56.6971 21.1016H67.3545C68.5315 21.1016 69.486 20.1473 69.486 18.9701C69.486 17.7929 68.5315 16.8386 67.3545 16.8386H56.6971C55.5201 16.8386 54.5657 17.7929 54.5657 18.9701C54.5657 20.1473 55.5201 21.1016 56.6971 21.1016Z" fill="url(#paint4_linear)"/>
<path d="M44.1215 21.1016H47.745C48.922 21.1016 49.8764 20.1473 49.8764 18.9701C49.8764 17.7929 48.922 16.8386 47.745 16.8386H44.1215C42.9445 16.8386 41.99 17.7929 41.99 18.9701C41.99 20.1473 42.9445 21.1016 44.1215 21.1016Z" fill="url(#paint5_linear)"/>
<path d="M44.1215 29.8406H67.3545C68.5315 29.8406 69.486 28.8864 69.486 27.7092C69.486 26.532 68.5315 25.5777 67.3545 25.5777H44.1215C42.9445 25.5777 41.99 26.532 41.99 27.7092C41.99 28.8864 42.9445 29.8406 44.1215 29.8406Z" fill="url(#paint6_linear)"/>
<path d="M67.3545 47.1056H56.6971C55.5201 47.1056 54.5657 48.0599 54.5657 49.2371C54.5657 50.4143 55.5201 51.3685 56.6971 51.3685H67.3545C68.5315 51.3685 69.486 50.4143 69.486 49.2371C69.486 48.0599 68.5315 47.1056 67.3545 47.1056Z" fill="url(#paint7_linear)"/>
<path d="M44.1215 51.3685H47.745C48.922 51.3685 49.8764 50.4143 49.8764 49.2371C49.8764 48.0599 48.922 47.1056 47.745 47.1056H44.1215C42.9445 47.1056 41.99 48.0599 41.99 49.2371C41.99 50.4143 42.9445 51.3685 44.1215 51.3685Z" fill="url(#paint8_linear)"/>
<path d="M44.1215 60.1076H67.3545C68.5315 60.1076 69.486 59.1533 69.486 57.9761C69.486 56.7989 68.5315 55.8446 67.3545 55.8446H44.1215C42.9445 55.8446 41.99 56.7989 41.99 57.9761C41.99 59.1533 42.9445 60.1076 44.1215 60.1076Z" fill="url(#paint9_linear)"/>
<path d="M67.3545 76.7331H56.6971C55.5201 76.7331 54.5657 77.6873 54.5657 78.8645C54.5657 80.0417 55.5201 80.996 56.6971 80.996H67.3545C68.5315 80.996 69.486 80.0417 69.486 78.8645C69.486 77.6873 68.5315 76.7331 67.3545 76.7331Z" fill="url(#paint10_linear)"/>
<path d="M44.1215 80.996H47.745C48.922 80.996 49.8764 80.0417 49.8764 78.8645C49.8764 77.6873 48.922 76.7331 47.745 76.7331H44.1215C42.9445 76.7331 41.99 77.6873 41.99 78.8645C41.99 80.0417 42.9445 80.996 44.1215 80.996Z" fill="url(#paint11_linear)"/>
<path d="M44.1215 89.7351H67.3545C68.5315 89.7351 69.486 88.7808 69.486 87.6036C69.486 86.4264 68.5315 85.4721 67.3545 85.4721H44.1215C42.9445 85.4721 41.99 86.4264 41.99 87.6036C41.99 88.7808 42.9445 89.7351 44.1215 89.7351Z" fill="url(#paint12_linear)"/>
<path d="M21.508 50.3603C20.6574 49.5472 19.3077 49.5777 18.4946 50.4288C17.6812 51.2799 17.7119 52.6291 18.563 53.4424L23.9639 58.6307C24.3802 59.047 24.9257 59.255 25.4711 59.255C26.0165 59.255 26.562 59.047 26.9783 58.6307L39.6605 45.9484C40.4929 45.1161 40.4929 43.7664 39.6605 42.9339C38.828 42.1015 37.4788 42.1015 36.646 42.9339L25.4515 54.1284L21.508 50.3603Z" fill="url(#paint13_linear)"/>
<defs>
<linearGradient id="paint0_linear" x1="40.498" y1="0" x2="40.498" y2="107" gradientUnits="userSpaceOnUse">
<stop stop-color="#680013"/>
<stop offset="1"/>
</linearGradient>
<linearGradient id="paint1_linear" x1="23.1265" y1="12.3625" x2="23.1265" y2="35.1693" gradientUnits="userSpaceOnUse">
<stop stop-color="#680013"/>
<stop offset="1"/>
</linearGradient>
<linearGradient id="paint2_linear" x1="23.1265" y1="42.4163" x2="23.1265" y2="65.2231" gradientUnits="userSpaceOnUse">
<stop stop-color="#680013"/>
<stop offset="1"/>
</linearGradient>
<linearGradient id="paint3_linear" x1="23.1265" y1="72.257" x2="23.1265" y2="95.0638" gradientUnits="userSpaceOnUse">
<stop stop-color="#680013"/>
<stop offset="1"/>
</linearGradient>
<linearGradient id="paint4_linear" x1="62.0258" y1="16.8386" x2="62.0258" y2="21.1016" gradientUnits="userSpaceOnUse">
<stop stop-color="#680013"/>
<stop offset="1"/>
</linearGradient>
<linearGradient id="paint5_linear" x1="45.9332" y1="16.8386" x2="45.9332" y2="21.1016" gradientUnits="userSpaceOnUse">
<stop stop-color="#680013"/>
<stop offset="1"/>
</linearGradient>
<linearGradient id="paint6_linear" x1="55.738" y1="25.5777" x2="55.738" y2="29.8406" gradientUnits="userSpaceOnUse">
<stop stop-color="#680013"/>
<stop offset="1"/>
</linearGradient>
<linearGradient id="paint7_linear" x1="62.0258" y1="47.1056" x2="62.0258" y2="51.3685" gradientUnits="userSpaceOnUse">
<stop stop-color="#680013"/>
<stop offset="1"/>
</linearGradient>
<linearGradient id="paint8_linear" x1="45.9332" y1="47.1056" x2="45.9332" y2="51.3685" gradientUnits="userSpaceOnUse">
<stop stop-color="#680013"/>
<stop offset="1"/>
</linearGradient>
<linearGradient id="paint9_linear" x1="55.738" y1="55.8446" x2="55.738" y2="60.1076" gradientUnits="userSpaceOnUse">
<stop stop-color="#680013"/>
<stop offset="1"/>
</linearGradient>
<linearGradient id="paint10_linear" x1="62.0258" y1="76.7331" x2="62.0258" y2="80.996" gradientUnits="userSpaceOnUse">
<stop stop-color="#680013"/>
<stop offset="1"/>
</linearGradient>
<linearGradient id="paint11_linear" x1="45.9332" y1="76.7331" x2="45.9332" y2="80.996" gradientUnits="userSpaceOnUse">
<stop stop-color="#680013"/>
<stop offset="1"/>
</linearGradient>
<linearGradient id="paint12_linear" x1="55.738" y1="85.4721" x2="55.738" y2="89.7351" gradientUnits="userSpaceOnUse">
<stop stop-color="#680013"/>
<stop offset="1"/>
</linearGradient>
<linearGradient id="paint13_linear" x1="29.0944" y1="42.3096" x2="29.0944" y2="59.255" gradientUnits="userSpaceOnUse">
<stop stop-color="#680013"/>
<stop offset="1"/>
</linearGradient>
</defs>
</svg>
