<svg width="592" height="498" viewBox="0 0 592 498" fill="none" xmlns="http://www.w3.org/2000/svg">
<path d="M203.825 458.191C239.13 462.679 274.885 463.427 310.49 464.774C326.796 465.372 342.803 464.624 357.913 470.458C371.975 475.994 383.345 486.914 397.856 491.702C409.226 495.292 421.343 495.292 433.162 493.946C483.128 488.261 530.102 460.435 559.125 419.445C585.754 381.895 596.824 333.874 589.793 288.395C585.604 260.869 572.888 235.138 569.896 207.312C566.754 177.99 577.825 152.409 585.006 124.434C589.942 104.986 592.037 84.7896 591.438 64.7432C590.99 53.224 589.643 41.256 584.108 31.0832C569.298 3.40721 531.748 -1.82879 500.482 1.31281C461.735 5.20241 423.138 17.1704 389.03 35.8704C362.102 50.6808 335.473 72.3728 304.655 78.2072C269.798 84.7896 242.87 61.0032 211.604 50.0824C141.142 25.548 56.02 73.7192 25.0528 137.598C-13.544 216.587 -9.2056 345.692 62.6024 404.335C101.648 436.2 152.063 451.31 202.179 457.892C202.778 458.042 203.226 458.042 203.825 458.191Z" fill="#FFE5D1"/>
<path d="M345.197 147.322H332.93V174.25H345.197V147.322Z" fill="#FFB300"/>
<path d="M355.22 170.211H324.253V178.14H355.22V170.211Z" fill="#FFA000"/>
<path d="M346.992 170.211H332.481V178.14H346.992V170.211Z" fill="#FFB300"/>
<path d="M371.377 178.29H308.096V183.974H371.377V178.29Z" fill="#FFA000"/>
<path d="M354.472 178.29H324.851V183.974H354.472V178.29Z" fill="#FFEF80"/>
<path d="M349.236 146.126C349.236 145.976 349.386 145.976 349.386 145.826C349.535 145.527 349.685 145.228 349.834 144.779C349.834 144.63 349.984 144.63 349.984 144.48C350.134 144.031 350.283 143.582 350.433 143.134C350.433 142.984 350.433 142.984 350.582 142.834C350.732 142.535 350.732 142.086 350.882 141.787C350.882 141.638 350.882 141.488 350.882 141.338C350.882 141.189 350.882 141.189 350.882 141.039H352.228V138.197H344.748H334.725H327.245V141.039H328.591C329.19 146.724 333.977 151.212 339.811 151.212C341.756 151.212 343.551 150.763 345.047 149.866C345.496 149.716 345.795 149.417 346.244 149.118C346.394 149.118 346.394 148.968 346.543 148.968C346.842 148.818 347.142 148.519 347.441 148.22C347.59 148.22 347.59 148.07 347.74 148.07C348.039 147.771 348.338 147.472 348.638 147.023C348.638 147.023 348.638 147.023 348.787 146.874C348.787 146.724 348.937 146.425 349.236 146.126Z" fill="#FF7D21"/>
<path d="M391.124 89.2776C391.124 117.702 368.086 140.59 339.811 140.59C311.537 140.59 288.498 117.552 288.498 89.2776H391.124Z" fill="#FFA000"/>
<path d="M363.897 134.606C380.054 125.93 391.124 108.875 391.124 89.2776H336.819C336.67 108.875 347.74 125.93 363.897 134.606Z" fill="#FFB300"/>
<path d="M396.809 81.1992H282.664V94.2144H396.809V81.1992Z" fill="#FFCB5D"/>
<path d="M362.7 81.1992H316.773V94.2144H362.7V81.1992Z" fill="#FFEF80"/>
<path d="M427.327 373.667H151.315C143.985 373.667 138.001 367.683 138.001 360.353V326.992C138.001 321.906 142.04 317.866 147.126 317.866H431.666C436.752 317.866 440.791 321.906 440.791 326.992V360.353C440.642 367.683 434.658 373.667 427.327 373.667Z" fill="#FF7D21"/>
<path d="M433.76 373.667H144.882C140.993 373.667 137.851 370.526 137.851 366.636V357.361H440.642V366.636C440.642 370.526 437.65 373.667 433.76 373.667Z" fill="#0F0F0F"/>
<path d="M180.936 317.866H168.818V373.667H180.936V317.866Z" fill="#FFF5D4"/>
<path d="M180.936 357.51H168.818V373.817H180.936V357.51Z" fill="#E5D5B9"/>
<path d="M414.611 317.866H387.683V373.667H414.611V317.866Z" fill="#FFF5D4"/>
<path d="M414.611 357.51H387.683V373.817H414.611V357.51Z" fill="#E5D5B9"/>
<path d="M189.762 317.866H185.274V373.667H189.762V317.866Z" fill="#FFF5D4"/>
<path d="M189.762 357.51H185.274V373.817H189.762V357.51Z" fill="#E5D5B9"/>
<path d="M371.975 335.519H208.462V350.18H371.975V335.519Z" fill="#FFF5D4"/>
<path d="M396.061 420.492H120.049C112.718 420.492 106.734 414.508 106.734 407.178V382.793C106.734 377.706 110.774 373.667 115.86 373.667H400.399C405.486 373.667 409.525 377.706 409.525 382.793V407.178C409.525 414.508 403.541 420.492 396.061 420.492Z" fill="#690014"/>
<path d="M402.494 420.492H113.616C109.726 420.492 106.585 417.35 106.585 413.461V407.776H409.375V413.61C409.525 417.5 406.383 420.492 402.494 420.492Z" fill="#5D5D5D"/>
<path d="M356.417 388.029H167.023V401.044H356.417V388.029Z" fill="#5D5D5D"/>
<path d="M118.403 474.498V434.106C118.403 431.712 120.348 429.618 122.891 429.618H384.242C386.636 429.618 388.73 427.673 388.73 425.13C388.73 422.736 386.786 420.642 384.242 420.642H93.8688C89.5304 420.642 85.94 424.232 85.94 428.57V479.584C85.94 483.922 89.5304 487.513 93.8688 487.513H384.242C386.636 487.513 388.73 485.568 388.73 483.025C388.73 480.631 386.786 478.537 384.242 478.537H122.891C120.498 478.986 118.403 477.041 118.403 474.498Z" fill="url(#paint0_linear)"/>
<path d="M380.502 478.986H112.718C104.64 478.986 98.0576 472.403 98.0576 464.325V444.278C98.0576 436.2 104.64 429.618 112.718 429.618H380.502V478.986Z" fill="white"/>
<path d="M98.0576 462.38V464.325C98.0576 472.403 104.64 478.986 112.718 478.986H380.502V462.38H98.0576Z" fill="#F1EEEB"/>
<path opacity="0.53" d="M286.853 319.063H208.612V487.064H286.853V319.063Z" fill="#1AB8FF"/>
<path d="M476.994 487.662H267.854C260.822 487.662 255.138 481.978 255.138 474.946V208.509C255.138 201.478 260.822 195.793 267.854 195.793H477.144C484.175 195.793 489.86 201.478 489.86 208.509V474.946C489.86 481.978 484.175 487.662 476.994 487.662Z" fill="#242728"/>
<path d="M466.373 479.135H277.428C270.995 479.135 265.909 473.899 265.909 467.616V215.69C265.909 209.257 271.145 204.17 277.428 204.17H466.223C472.656 204.17 477.742 209.406 477.742 215.69V467.616C477.892 473.899 472.656 479.135 466.373 479.135Z" fill="#F2F8FD"/>
<path d="M462.184 204.021H398.454V478.986H462.184V204.021Z" fill="#DEEEE9"/>
<path d="M441.09 182.927H253.941V487.662H441.09C448.122 487.662 453.806 481.978 453.806 474.946V195.643C453.806 188.612 448.122 182.927 441.09 182.927Z" fill="#690014"/>
<path d="M258.578 182.927H231.65C224.619 182.927 218.934 188.612 218.934 195.643V474.797C218.934 481.828 224.619 487.513 231.65 487.513H258.578V182.927Z" fill="#020202"/>
<path d="M413.714 294.828H289.246C282.814 294.828 277.578 289.592 277.578 283.159V272.238C277.578 265.806 282.814 260.57 289.246 260.57H413.714C420.146 260.57 425.382 265.806 425.382 272.238V283.159C425.382 289.592 420.146 294.828 413.714 294.828Z" fill="#F2F8FD"/>
<path d="M386.636 326.244H313.033C309.143 326.244 306.151 323.102 306.151 319.362V312.93C306.151 309.04 309.293 306.048 313.033 306.048H386.636C390.526 306.048 393.518 309.19 393.518 312.93V319.362C393.518 323.102 390.526 326.244 386.636 326.244Z" fill="#F2F8FD"/>
<path opacity="0.44" d="M422.091 355.865L428.075 487.363C428.075 487.513 428.075 487.662 428.075 487.662H440.941C447.972 487.662 453.657 481.978 453.657 474.946V355.865H422.091Z" fill="#1AB8FF"/>
<path d="M534.044 329.117L521.09 326.04L516.077 347.144L529.031 350.221L534.044 329.117Z" fill="#B0BEC5"/>
<path d="M533.945 329.197L526.523 327.434L521.51 348.538L528.932 350.301L533.945 329.197Z" fill="#CFD8DC"/>
<path d="M519.63 332.527C521.874 333.425 524.118 334.322 526.662 334.921C528.606 335.37 530.551 335.669 532.646 335.818L534.291 329.236L521.276 326.094L519.63 332.527Z" fill="#B0BEC5"/>
<path d="M537.134 332.078C560.268 332.078 579.022 313.325 579.022 290.19C579.022 267.056 560.268 248.302 537.134 248.302C514 248.302 495.246 267.056 495.246 290.19C495.246 313.325 514 332.078 537.134 332.078Z" fill="#020202"/>
<path d="M537.134 321.457C554.402 321.457 568.4 307.458 568.4 290.19C568.4 272.922 554.402 258.924 537.134 258.924C519.866 258.924 505.867 272.922 505.867 290.19C505.867 307.458 519.866 321.457 537.134 321.457Z" fill="white"/>
<path d="M568.101 286.301C566.455 273.734 557.33 262.963 544.314 259.822C527.559 255.782 510.654 266.254 506.615 283.01C505.718 287.049 505.568 290.938 506.166 294.828C510.654 302.458 518.134 308.292 527.41 310.536C545.511 314.725 563.463 303.954 568.101 286.301Z" fill="url(#paint1_linear)"/>
<path d="M518.583 406.13L500.482 401.792L516.19 335.519L534.291 339.858L518.583 406.13Z" fill="url(#paint2_linear)"/>
<path d="M534.164 339.675L529.216 338.501L513.458 404.869L518.406 406.044L534.164 339.675Z" fill="#FF7D21"/>
<path d="M455.003 319.811L445.878 321.606C444.98 321.756 444.082 320.858 444.232 319.662L446.326 306.048C446.476 305.45 446.775 305.001 447.374 304.851C447.972 304.702 448.421 305.001 448.72 305.599L455.751 317.418C456.35 318.315 455.901 319.662 455.003 319.811Z" fill="#37474F"/>
<path d="M486.419 465.97L471.31 468.962C470.711 469.112 470.412 469.561 470.562 470.159L472.656 480.93C472.806 481.529 473.254 481.828 473.853 481.678L488.962 478.686C489.561 478.537 489.86 478.088 489.71 477.49L487.616 466.718C487.466 466.12 486.868 465.821 486.419 465.97Z" fill="#7986CB"/>
<path d="M486.718 465.821L480.286 467.018C479.986 467.018 479.687 467.467 479.687 467.766L481.931 479.285C481.931 479.584 482.38 479.883 482.679 479.883L489.112 478.686C489.411 478.686 489.71 478.238 489.71 477.938L487.466 466.419C487.317 465.971 487.018 465.821 486.718 465.821Z" fill="#3949AB"/>
<path d="M482.53 466.718L475.199 468.214C474.75 468.364 474.601 468.663 474.601 469.112L476.845 480.482C476.994 480.93 477.294 481.08 477.742 481.08L485.073 479.584C485.522 479.434 485.671 479.135 485.671 478.686L483.427 467.317C483.278 466.868 482.829 466.569 482.53 466.718Z" fill="#5C6BC0"/>
<path d="M459.832 323.861L442.794 327.157L470.777 471.831L487.815 468.535L459.832 323.861Z" fill="#ECEFF1"/>
<path d="M459.815 323.965L454.675 324.96L482.657 469.634L487.798 468.639L459.815 323.965Z" fill="#B0BEC5"/>
<path d="M455.73 324.639L447.064 326.315L475.047 470.989L483.713 469.313L455.73 324.639Z" fill="#CFD8DC"/>
<path d="M487.018 464.026L469.963 467.317L443.634 331.63L460.838 328.338L487.018 464.026Z" fill="url(#paint3_linear)"/>
<path d="M487.018 464.026L480.585 465.372L454.405 329.685L460.838 328.338L487.018 464.026Z" fill="url(#paint4_linear)"/>
<path d="M482.829 464.923L474.152 466.569L447.822 330.882L456.649 329.236L482.829 464.923Z" fill="url(#paint5_linear)"/>
<path d="M453.507 312.93L444.681 314.575L442.886 327.142L459.94 323.85L453.507 312.93Z" fill="#FFCC80"/>
<path d="M451.413 325.496L459.94 323.85L453.507 312.93L449.019 313.827L451.413 325.496Z" fill="#FFA000"/>
<path d="M451.263 313.378L446.775 314.276L447.074 326.394L455.751 324.748L451.263 313.378Z" fill="#FFB300"/>
<path d="M455.003 465.222L464.278 466.718C465.176 466.868 465.625 468.065 465.176 469.112L458.444 481.23C458.145 481.828 457.546 482.127 457.098 481.978C456.499 481.828 456.2 481.379 456.05 480.781L453.507 467.167C453.208 466.12 454.106 465.073 455.003 465.222Z" fill="#37474F"/>
<path d="M476.396 317.418L491.506 319.961C492.104 320.11 492.553 319.662 492.702 319.063L494.498 308.142C494.647 307.544 494.198 307.095 493.6 306.946L478.49 304.402C477.892 304.253 477.443 304.702 477.294 305.3L475.498 316.221C475.498 316.819 475.798 317.268 476.396 317.418Z" fill="url(#paint6_linear)"/>
<path d="M476.097 317.268L482.53 318.315C482.829 318.315 483.278 318.166 483.278 317.717L485.222 306.198C485.222 305.898 485.073 305.45 484.624 305.45L478.191 304.402C477.892 304.402 477.443 304.552 477.443 305.001L475.498 316.52C475.498 316.969 475.798 317.268 476.097 317.268Z" fill="url(#paint7_linear)"/>
<path d="M480.286 318.016L487.766 319.213C488.214 319.213 488.514 319.063 488.663 318.614L490.608 307.245C490.608 306.796 490.458 306.497 490.01 306.347L482.53 305.15C482.081 305.15 481.782 305.3 481.632 305.749L479.687 317.118C479.687 317.567 479.837 317.866 480.286 318.016Z" fill="url(#paint8_linear)"/>
<path d="M451.799 459.791L468.921 462.622L492.954 317.24L475.833 314.41L451.799 459.791Z" fill="#ECEFF1"/>
<path d="M451.924 459.697L457.09 460.551L481.124 315.169L475.958 314.315L451.924 459.697Z" fill="#B0BEC5"/>
<path d="M456.087 460.493L464.795 461.933L488.829 316.552L480.12 315.112L456.087 460.493Z" fill="#CFD8DC"/>
<path d="M475.199 318.914L492.254 321.756L469.814 458.042L452.61 455.199L475.199 318.914Z" fill="url(#paint9_linear)"/>
<path d="M475.199 318.914L481.632 319.961L459.042 456.246L452.61 455.199L475.199 318.914Z" fill="url(#paint10_linear)"/>
<path d="M479.388 319.512L488.065 321.008L465.625 457.294L456.798 455.947L479.388 319.512Z" fill="url(#paint11_linear)"/>
<path d="M454.106 472.254L462.932 473.75L469.066 462.53L451.862 459.687L454.106 472.254Z" fill="#FFCC80"/>
<path d="M460.389 461.183L451.862 459.687L454.106 472.254L458.444 473.002L460.389 461.183Z" fill="#FFA000"/>
<path d="M456.2 472.553L460.688 473.301L464.877 461.931L456.05 460.435L456.2 472.553Z" fill="#FFB300"/>
<path d="M528.307 487.812H456.35C449.019 487.812 443.035 482.127 442.736 474.797L436.752 343.298H548.054L542.07 474.797C541.622 482.127 535.638 487.812 528.307 487.812Z" fill="url(#paint12_linear)"/>
<path d="M477.144 450.861C477.443 458.191 483.427 463.876 490.758 463.876H542.37L547.905 343.298H472.207L477.144 450.861Z" fill="url(#paint13_linear)"/>
<path d="M148.772 354.219C148.772 354.219 155.654 350.479 156.252 351.975C156.85 353.471 148.772 357.361 147.874 357.361C146.977 357.361 147.426 355.266 147.426 355.266L148.772 354.219Z" fill="#FFB300"/>
<path d="M128.426 369.628C128.426 369.628 135.757 372.022 135.607 372.919C135.308 373.817 126.182 372.77 126.033 371.573C125.883 370.376 127.08 368.73 127.828 368.88C128.426 369.03 128.426 369.628 128.426 369.628Z" fill="#FFB300"/>
<path d="M112.12 325.646C112.12 325.646 118.553 342.85 122.143 347.786C125.584 352.723 125.584 369.778 125.584 369.778H129.773C129.773 369.778 131.269 351.826 129.324 345.094C127.379 338.362 123.041 325.646 123.041 325.646H112.12Z" fill="#424242"/>
<path d="M119.301 334.173C119.301 334.173 124.088 335.968 129.324 338.81C134.41 341.653 136.804 342.7 137.253 343.448C137.702 344.196 144.284 354.668 146.079 355.715C147.725 356.762 149.819 355.117 149.67 353.322C149.52 351.676 143.985 340.157 141.741 338.362C139.646 336.566 129.025 327.291 124.836 326.693C120.647 326.094 117.506 332.378 119.301 334.173Z" fill="#424242"/>
<path d="M118.702 300.064C118.702 300.064 122.742 301.261 124.537 305.3C126.332 309.339 129.623 322.055 128.875 328.039C128.127 331.63 115.86 330.732 112.27 327.291C111.821 324.598 109.876 314.575 111.97 304.552C112.419 302.158 114.962 300.064 118.702 300.064Z" fill="#690014"/>
<path d="M116.159 287.946C116.159 287.946 119.75 291.537 119.301 295.277C118.702 298.418 117.506 298.568 119.45 300.662C119.45 300.662 117.954 302.757 115.262 301.41C115.262 301.41 116.608 299.914 114.364 298.568C112.718 297.67 110.026 294.379 109.726 291.537C109.427 288.694 110.774 287.498 112.718 287.049C114.514 286.6 115.71 287.198 116.159 287.946Z" fill="#FFCC80"/>
<path d="M116.01 307.843C116.01 307.843 108.978 316.221 102.396 318.016C98.2072 317.268 110.923 304.253 113.915 304.402C117.057 304.402 116.01 307.843 116.01 307.843Z" fill="#690014"/>
<path d="M113.167 321.756C113.167 321.756 113.915 322.504 114.663 322.205C115.411 321.906 117.057 322.205 117.655 322.654C118.254 323.102 116.458 323.102 116.458 323.102C116.458 323.102 119.45 323.551 119.45 323.85C119.45 324.15 117.206 325.047 116.01 324.898C114.813 324.748 114.065 323.701 112.868 323.402L113.167 321.756Z" fill="#FFCC80"/>
<path d="M102.845 316.071C102.845 316.071 109.876 318.465 113.766 321.906L113.018 323.402C113.018 323.402 108.081 322.504 104.49 320.41C101.05 318.465 101.05 315.922 102.845 316.071Z" fill="#FF5345"/>
<path d="M142.938 314.276C142.938 314.276 143.985 314.426 144.583 313.977C145.182 313.528 147.126 312.63 147.276 313.079C147.426 313.378 146.528 313.977 146.528 313.977C146.528 313.977 148.174 313.827 148.473 314.276C148.772 314.874 147.575 316.969 146.528 316.819C145.481 316.67 144.284 315.622 143.686 315.473C143.087 315.323 142.788 315.323 142.788 315.323L142.938 314.276Z" fill="#690014"/>
<path d="M119.45 305.45C119.45 305.45 126.332 313.977 132.914 315.922C137.103 315.323 124.686 302.009 121.545 302.009C118.403 302.158 119.45 305.45 119.45 305.45Z" fill="#690014"/>
<path d="M131.568 313.079C131.568 313.079 139.048 312.63 143.985 314.276L143.835 315.922C143.835 315.922 138.898 316.969 134.859 316.52C130.67 315.922 129.922 313.678 131.568 313.079Z" fill="#690014"/>
<path d="M116.608 290.938C116.608 290.938 118.104 293.332 117.805 293.781C117.506 294.23 115.86 294.529 115.71 294.08C115.561 293.781 117.057 293.182 117.057 293.182C117.057 293.182 115.71 290.49 116.608 290.938Z" fill="#FF8A65"/>
<path d="M110.175 287.797C110.175 287.797 114.214 282.112 116.458 284.057C118.702 286.002 119.45 287.348 115.112 289.143C110.624 290.789 111.073 291.986 112.12 293.781C113.167 295.726 113.915 296.174 113.167 296.324C112.419 296.474 111.97 293.482 111.073 293.631C110.026 293.781 112.569 296.474 112.718 296.474C112.868 296.474 109.427 296.324 108.679 293.332C107.931 290.34 108.978 290.49 108.978 290.49C108.978 290.49 107.632 288.844 110.175 287.797Z" fill="#424242"/>
<path d="M296.577 406.28C296.577 406.28 299.569 403.587 302.262 406.43C304.954 409.272 300.915 412.563 304.057 413.76C307.198 414.957 309.442 415.106 308.545 418.846C307.647 422.586 305.852 424.232 306.75 427.074C307.647 429.917 303.907 432.909 300.317 431.562C296.726 430.216 294.183 431.712 290.742 434.405C287.302 437.098 281.467 433.358 283.262 428.72C285.058 424.082 288.798 424.681 287.75 420.043C286.703 415.406 283.711 411.366 287.152 407.926C290.593 404.485 296.577 406.28 296.577 406.28Z" fill="#F76A1E"/>
<path d="M311.387 452.806C311.387 452.806 312.135 461.931 309.891 465.372C307.647 468.813 288.498 471.655 287.451 470.01C286.254 468.364 292.089 466.718 296.278 465.222C300.466 463.726 304.506 460.286 303.458 453.853C302.411 447.27 311.387 452.806 311.387 452.806Z" fill="#FFA812"/>
<path d="M295.081 446.672C295.081 446.672 298.97 453.404 299.12 461.632C299.718 468.962 289.845 484.222 290.742 487.513C291.49 490.654 302.86 476.592 305.403 468.663C307.797 460.585 306.151 449.963 304.655 446.822C302.86 443.83 295.081 446.672 295.081 446.672Z" fill="#FFCC80"/>
<path d="M288.648 487.363C288.648 487.363 287.75 488.261 287.75 488.71C287.75 489.158 288.798 489.906 289.246 491.253C289.695 492.45 291.64 495.442 293.435 496.788C294.931 497.985 295.23 497.835 295.23 497.835L295.829 497.087C295.829 497.087 291.042 491.103 290.892 490.804C290.742 490.804 288.648 487.363 288.648 487.363Z" fill="#F5F5F5"/>
<path d="M290.294 487.962C290.742 489.308 292.538 491.103 293.734 490.206C293.136 489.009 293.585 486.615 293.585 486.615C293.585 486.615 292.238 484.82 291.191 484.97C291.191 484.97 289.845 486.615 290.294 487.962Z" fill="#FFCC80"/>
<path d="M293.734 490.206C292.538 491.103 290.742 489.308 290.294 487.962C289.994 487.064 290.593 486.017 290.892 485.418C289.845 485.867 288.349 487.363 288.199 488.111C288.05 488.859 289.097 489.607 290.144 491.552C291.042 493.347 294.931 497.686 295.679 497.536C296.278 497.237 296.577 496.19 296.577 496.19C296.577 493.946 294.333 491.402 293.734 490.206Z" fill="#F76A1E"/>
<path d="M286.105 468.813C286.105 468.813 284.908 469.262 284.758 469.71C284.609 470.159 285.207 471.356 285.058 472.553C285.058 473.899 285.357 477.34 286.554 479.434C287.451 481.08 287.75 481.08 287.75 481.08L288.648 480.781C288.648 480.781 286.853 473.301 286.703 473.002C286.703 472.702 286.105 468.813 286.105 468.813Z" fill="#F5F5F5"/>
<path d="M287.451 469.86C287.301 471.206 288.199 473.6 289.545 473.301C289.545 471.954 290.892 470.01 290.892 470.01C290.892 470.01 290.443 467.766 289.396 467.616C289.396 467.616 287.601 468.514 287.451 469.86Z" fill="#FFA812"/>
<path d="M289.546 473.45C288.199 473.75 287.302 471.356 287.451 470.01C287.601 468.962 288.498 468.364 289.097 467.915C287.9 467.766 285.955 468.663 285.656 469.262C285.207 469.86 285.806 470.907 285.955 473.151C285.955 475.246 287.75 480.781 288.498 480.781C289.246 480.781 289.845 479.883 289.845 479.883C290.443 477.938 289.546 474.797 289.546 473.45Z" fill="#F76A1E"/>
<path d="M293.734 440.09C293.734 440.09 291.79 441.735 291.939 446.074C292.089 450.412 287.75 456.546 284.31 458.341C280.869 460.136 285.656 462.978 288.648 462.53C291.64 462.081 292.837 462.679 296.278 466.569C299.718 470.309 302.86 464.325 307.049 466.569C311.238 468.813 315.726 467.616 318.119 464.624C320.513 461.632 324.103 462.081 324.552 459.388C325.001 456.845 317.67 453.404 314.678 448.318C311.686 443.381 311.686 440.239 309.891 439.342C308.096 438.145 293.734 440.09 293.734 440.09Z" fill="#F76A1E"/>
<path d="M301.364 421.838C301.364 421.838 307.797 417.65 313.182 416.902C317.222 417.051 314.978 420.791 311.986 423.035C306.45 427.074 298.821 425.728 301.364 421.838Z" fill="#1E60CF"/>
<path d="M300.317 418.996C300.317 418.996 304.057 419.445 305.104 420.941C306.301 422.437 306.301 423.933 307.498 425.878C308.694 427.822 306.899 429.468 307.797 432.161C308.694 435.003 308.246 435.153 309.891 437.696C311.537 440.239 309.891 441.436 307.797 442.633C305.702 443.83 296.128 444.278 293.884 441.436C291.64 438.594 293.435 437.995 294.183 435.901C294.782 433.806 294.632 429.618 294.183 426.027C293.734 422.287 294.931 420.492 297.624 419.594C300.317 418.547 300.317 418.996 300.317 418.996Z" fill="#1E60CF"/>
<path d="M277.129 430.814C277.129 430.814 276.082 430.964 275.483 430.366C274.885 429.618 273.239 428.87 272.491 429.019C271.743 429.169 273.389 430.066 273.389 430.066C273.389 430.066 270.247 428.72 270.098 429.019C269.948 429.318 271.594 431.413 272.79 432.011C273.987 432.61 275.334 431.862 276.53 432.31L277.129 430.814Z" fill="#FFCC80"/>
<path d="M324.851 412.264C324.851 412.264 325.898 411.965 326.048 411.067C326.197 410.17 327.394 408.823 327.993 408.524C328.741 408.225 327.693 409.87 327.693 409.87C327.693 409.87 329.788 407.178 330.087 407.477C330.386 407.626 329.937 410.17 329.04 411.366C328.292 412.414 326.796 412.414 325.898 413.461L324.851 412.264Z" fill="#FFCC80"/>
<path d="M298.671 405.981C298.671 405.981 302.561 410.02 302.262 414.059C301.663 417.5 300.317 417.799 302.411 420.043C302.411 420.043 300.766 422.287 297.774 420.791C297.774 420.791 299.12 419.146 296.726 417.65C294.931 416.602 291.939 413.012 291.64 409.87C291.191 406.729 292.837 405.532 294.931 404.934C296.726 404.634 298.073 405.233 298.671 405.981Z" fill="#FFCC80"/>
<path d="M299.12 409.272C299.12 409.272 300.766 411.815 300.317 412.414C299.868 412.862 298.073 413.162 298.073 412.862C297.923 412.414 299.569 411.815 299.569 411.815C299.569 411.815 298.073 408.674 299.12 409.272Z" fill="#FF8A65"/>
<path d="M295.23 421.39C295.23 421.39 288.947 425.578 286.105 430.216C284.609 433.956 288.947 433.507 292.238 431.562C297.923 428.271 299.718 420.642 295.23 421.39Z" fill="#1E60CF"/>
<path d="M287.302 430.665C286.853 430.665 277.877 430.066 275.932 430.964C274.286 431.862 277.727 433.806 280.869 434.255C284.01 434.704 290.742 433.657 292.388 431.263C294.034 428.87 287.302 430.665 287.302 430.665Z" fill="#1E60CF"/>
<path d="M313.781 416.602C314.23 416.453 323.206 411.965 325.3 411.965C327.095 412.114 325.001 415.406 322.308 417.051C313.93 422.287 313.332 421.988 310.639 420.492C308.096 419.146 313.781 416.602 313.781 416.602Z" fill="#1E60CF"/>
<path d="M292.089 404.186C292.089 404.186 297.474 402.39 298.821 405.382C300.167 408.374 293.884 408.075 293.884 410.319C293.884 412.563 296.876 412.114 295.38 414.209C293.884 416.303 297.774 416.004 296.278 417.949C294.782 419.894 289.097 415.106 289.396 411.366C289.695 407.626 289.246 405.532 292.089 404.186Z" fill="#F76A1E"/>
<path d="M347.441 433.208C347.441 433.208 340.26 436.2 340.41 437.696C340.559 439.192 344 439.042 346.394 437.995C348.787 436.798 349.386 436.05 349.386 436.05C349.386 436.05 350.134 436.649 350.582 435.901C351.181 435.153 351.779 433.657 351.031 433.358C350.283 432.909 347.441 433.208 347.441 433.208Z" fill="white"/>
<path d="M357.015 381.446C357.015 381.446 351.63 403.288 350.283 410.319C348.937 417.5 346.543 431.862 346.992 433.058C347.441 434.255 349.834 433.806 350.732 433.208C351.779 432.61 356.267 412.862 357.614 409.422C358.96 406.13 366.44 384.887 366.44 383.092C366.44 381.446 359.708 379.651 357.015 381.446Z" fill="#424242"/>
<path d="M367.188 425.13C367.188 425.13 364.495 432.31 365.692 433.358C366.889 434.255 369.133 431.562 370.03 429.318C370.778 426.775 370.629 425.728 370.629 425.728C370.629 425.728 371.526 425.728 371.377 424.83C371.227 423.933 370.629 422.437 369.731 422.736C368.983 422.886 367.188 425.13 367.188 425.13Z" fill="white"/>
<path d="M373.471 382.344C373.471 382.344 371.078 388.029 369.282 394.91C367.487 401.642 366.59 404.784 366.889 405.682C367.188 406.579 370.928 421.09 370.33 423.334C369.881 425.578 366.739 426.027 365.393 424.531C364.046 423.035 358.511 408.674 358.661 405.382C358.81 401.942 359.259 385.186 362.251 381.147C365.243 376.958 373.322 379.202 373.471 382.344Z" fill="#616161"/>
<path d="M363.448 354.07C363.448 354.07 367.487 355.266 369.282 359.306C371.078 363.345 374.369 376.061 373.621 382.045C372.873 385.635 360.606 384.738 357.015 381.297C356.566 378.604 354.622 368.581 356.716 358.558C357.165 356.164 359.708 354.07 363.448 354.07Z" fill="#DB4FFF"/>
<path d="M360.905 341.952C360.905 341.952 364.495 345.542 364.046 349.282C363.448 352.424 362.251 352.574 364.196 354.668C364.196 354.668 362.7 356.762 360.007 355.416C360.007 355.416 361.354 353.92 359.11 352.574C357.464 351.676 354.771 348.385 354.472 345.542C354.173 342.7 355.519 341.503 357.464 341.054C359.259 340.606 360.306 341.204 360.905 341.952Z" fill="#FFCC80"/>
<path d="M364.346 355.266C364.346 355.266 375.117 356.314 380.502 360.652C382.298 364.542 364.346 361.55 362.7 359.006C360.905 356.314 364.346 355.266 364.346 355.266Z" fill="#DB4FFF"/>
<path d="M377.361 349.731C377.361 349.731 377.51 348.684 376.912 348.235C376.314 347.786 375.566 346.29 375.566 345.542C375.566 344.794 376.613 346.29 376.613 346.29C376.613 346.29 375.266 343.598 375.566 343.448C375.865 343.298 377.81 344.645 378.408 345.692C379.006 346.739 378.408 347.936 378.857 349.133L377.361 349.731Z" fill="#FFCC80"/>
<path d="M378.558 361.4C378.558 361.4 376.613 354.219 377.211 348.983L378.857 348.834C378.857 348.834 380.951 353.471 381.25 357.51C381.55 361.55 379.455 362.896 378.558 361.4Z" fill="#DB4FFF"/>
<path d="M341.457 342.85C341.457 342.85 340.858 341.952 341.008 341.204C341.158 340.456 341.158 338.362 340.858 338.362C340.41 338.362 340.26 339.409 340.26 339.409C340.26 339.409 339.811 337.763 339.213 337.763C338.614 337.763 337.118 339.708 337.717 340.606C338.166 341.503 339.662 342.102 340.11 342.7C340.41 343.298 340.709 343.448 340.709 343.448L341.457 342.85Z" fill="#FFCC80"/>
<path d="M358.81 361.101C358.81 361.101 348.338 358.109 343.85 352.873C342.803 348.684 359.858 354.967 361.054 357.81C362.251 360.652 358.81 361.101 358.81 361.101Z" fill="#DB4FFF"/>
<path d="M347.142 352.873C347.142 352.873 344.748 345.842 341.307 341.952L339.811 342.7C339.811 342.7 340.709 347.637 342.803 351.227C344.748 354.818 347.142 354.668 347.142 352.873Z" fill="#DB4FFF"/>
<path d="M361.354 344.944C361.354 344.944 362.85 347.338 362.55 347.786C362.251 348.235 360.606 348.534 360.456 348.086C360.306 347.786 361.802 347.188 361.802 347.188C361.802 347.188 360.456 344.495 361.354 344.944Z" fill="#FF8A65"/>
<path d="M353.425 341.952C353.425 341.952 358.362 338.511 360.905 340.306C362.401 342.55 355.519 344.346 355.519 344.346C355.519 344.346 358.96 351.377 357.015 351.526C355.22 351.526 349.984 344.794 353.425 341.952Z" fill="#424242"/>
<path d="M331.733 211.202H327.245V496.938H331.733V211.202Z" fill="#FFB300"/>
<path d="M358.661 211.202H354.173V496.938H358.661V211.202Z" fill="#FFB300"/>
<path d="M355.22 223.618H329.788V227.658H355.22V223.618Z" fill="#FFB300"/>
<path d="M355.22 240.074H329.788V244.114H355.22V240.074Z" fill="#FFB300"/>
<path d="M355.22 256.53H329.788V260.57H355.22V256.53Z" fill="#FFB300"/>
<path d="M355.22 272.986H329.788V277.026H355.22V272.986Z" fill="#FFB300"/>
<path d="M355.22 289.442H329.788V293.482H355.22V289.442Z" fill="#FFB300"/>
<path d="M355.22 305.898H329.788V309.938H355.22V305.898Z" fill="#FFB300"/>
<path d="M355.22 322.354H329.788V326.394H355.22V322.354Z" fill="#FFB300"/>
<path d="M355.22 338.81H329.788V342.85H355.22V338.81Z" fill="#FFB300"/>
<path d="M355.22 355.266H329.788V359.306H355.22V355.266Z" fill="#FFB300"/>
<path d="M355.22 371.722H329.788V375.762H355.22V371.722Z" fill="#FFB300"/>
<path d="M355.22 388.178H329.788V392.218H355.22V388.178Z" fill="#FFB300"/>
<path d="M355.22 404.634H329.788V408.674H355.22V404.634Z" fill="#FFB300"/>
<path d="M355.22 421.09H329.788V425.13H355.22V421.09Z" fill="#FFB300"/>
<path d="M355.22 437.546H329.788V441.586H355.22V437.546Z" fill="#FFB300"/>
<path d="M355.22 454.002H329.788V458.042H355.22V454.002Z" fill="#FFB300"/>
<path d="M355.22 470.458H329.788V474.498H355.22V470.458Z" fill="#FFB300"/>
<path d="M421.493 109.474L422.39 105.883C422.69 104.836 424.186 104.836 424.335 105.883L425.233 109.474C425.382 109.773 425.682 110.072 425.981 110.222L429.571 111.119C430.618 111.418 430.618 112.914 429.571 113.064L425.981 113.962C425.682 114.111 425.382 114.41 425.233 114.71L424.335 118.3C424.036 119.347 422.54 119.347 422.39 118.3L421.493 114.71C421.343 114.41 421.044 114.111 420.745 113.962L417.154 113.064C416.107 112.765 416.107 111.269 417.154 111.119L420.745 110.222C421.044 110.072 421.343 109.922 421.493 109.474Z" fill="#FEC800"/>
<path d="M294.034 153.157L294.632 150.763C294.782 150.015 295.829 150.015 295.978 150.763L296.577 153.157C296.577 153.456 296.876 153.606 297.026 153.606L299.419 154.204C300.167 154.354 300.167 155.401 299.419 155.55L297.026 156.149C296.726 156.149 296.577 156.448 296.577 156.598L295.978 158.991C295.829 159.739 294.782 159.739 294.632 158.991L294.034 156.598C294.034 156.298 293.734 156.149 293.585 156.149L291.191 155.55C290.443 155.401 290.443 154.354 291.191 154.204L293.585 153.606C293.734 153.606 293.884 153.456 294.034 153.157Z" fill="#FEC800"/>
<path d="M257.082 67.7352L257.681 65.3416C257.83 64.5936 258.878 64.5936 259.027 65.3416L259.626 67.7352C259.626 68.0344 259.925 68.184 260.074 68.184L262.468 68.7824C263.216 68.932 263.216 69.9792 262.468 70.1288L260.074 70.7272C259.775 70.7272 259.626 71.0264 259.626 71.176L259.027 73.5696C258.878 74.3176 257.83 74.3176 257.681 73.5696L257.082 71.176C257.082 70.8768 256.783 70.7272 256.634 70.7272L254.24 70.1288C253.492 69.9792 253.492 68.932 254.24 68.7824L256.634 68.184C256.783 68.184 256.933 68.0344 257.082 67.7352Z" fill="#FEC800"/>
<path d="M340.858 28.2409L344.598 35.8705C345.047 36.9177 346.094 37.6657 347.291 37.8153L355.669 39.0121C358.511 39.4609 359.708 43.0513 357.614 45.1457L351.63 50.9801C350.732 51.7281 350.433 52.9249 350.582 54.1217L352.078 62.4993C352.527 65.3417 349.535 67.5857 346.992 66.2393L339.512 62.3497C338.465 61.7513 337.268 61.7513 336.221 62.3497L328.741 66.2393C326.198 67.5857 323.056 65.3417 323.654 62.4993L325.15 54.1217C325.3 52.9249 325.001 51.7281 324.103 50.9801L318.119 45.1457C316.025 43.0513 317.222 39.4609 320.064 39.0121L328.442 37.8153C329.638 37.6657 330.536 36.9177 331.134 35.8705L334.874 28.2409C335.772 25.5481 339.512 25.5481 340.858 28.2409Z" fill="#FEC800"/>
<path d="M355.669 38.8624L347.291 37.6656C346.094 37.516 345.197 36.768 344.598 35.7208L340.858 28.0912C340.26 26.7448 338.914 26.1464 337.567 26.1464V61.6016C338.166 61.6016 338.764 61.7512 339.213 62.0504L346.693 65.94C349.236 67.2864 352.378 65.0424 351.779 62.2L350.283 53.8224C350.134 52.6256 350.433 51.4288 351.33 50.6808L357.314 44.8464C359.708 42.9016 358.511 39.3112 355.669 38.8624Z" fill="#FE9300"/>
<defs>
<linearGradient id="paint0_linear" x1="85.8211" y1="454.329" x2="388.595" y2="454.329" gradientUnits="userSpaceOnUse">
<stop stop-color="#661608"/>
<stop offset="1" stop-color="#36FFFF"/>
</linearGradient>
<linearGradient id="paint1_linear" x1="536.584" y1="282.62" x2="542.876" y2="369.434" gradientUnits="userSpaceOnUse">
<stop stop-color="white"/>
<stop offset="1" stop-color="#A3A1A1"/>
</linearGradient>
<linearGradient id="paint2_linear" x1="517.82" y1="363.569" x2="521.809" y2="302.731" gradientUnits="userSpaceOnUse">
<stop stop-color="#FE9300"/>
<stop offset="1" stop-color="#FEC800"/>
</linearGradient>
<linearGradient id="paint3_linear" x1="467.433" y1="351.453" x2="468.929" y2="318.043" gradientUnits="userSpaceOnUse">
<stop stop-color="#0067FF"/>
<stop offset="1" stop-color="#36FFFF"/>
</linearGradient>
<linearGradient id="paint4_linear" x1="472.712" y1="351.69" x2="474.208" y2="318.279" gradientUnits="userSpaceOnUse">
<stop stop-color="#0067FF"/>
<stop offset="1" stop-color="#36FFFF"/>
</linearGradient>
<linearGradient id="paint5_linear" x1="467.433" y1="351.453" x2="468.929" y2="318.043" gradientUnits="userSpaceOnUse">
<stop stop-color="#0067FF"/>
<stop offset="1" stop-color="#36FFFF"/>
</linearGradient>
<linearGradient id="paint6_linear" x1="485.938" y1="280.57" x2="483.943" y2="352.876" gradientUnits="userSpaceOnUse">
<stop stop-color="#3C0AFF"/>
<stop offset="1" stop-color="#B84FFF"/>
</linearGradient>
<linearGradient id="paint7_linear" x1="481.248" y1="280.44" x2="479.253" y2="352.747" gradientUnits="userSpaceOnUse">
<stop stop-color="#3C0AFF"/>
<stop offset="1" stop-color="#B84FFF"/>
</linearGradient>
<linearGradient id="paint8_linear" x1="485.938" y1="280.57" x2="483.943" y2="352.876" gradientUnits="userSpaceOnUse">
<stop stop-color="#3C0AFF"/>
<stop offset="1" stop-color="#B84FFF"/>
</linearGradient>
<linearGradient id="paint9_linear" x1="472.513" y1="385.682" x2="474.009" y2="315.869" gradientUnits="userSpaceOnUse">
<stop stop-color="#FE3400"/>
<stop offset="1" stop-color="#FEC800"/>
</linearGradient>
<linearGradient id="paint10_linear" x1="467.135" y1="385.567" x2="468.631" y2="315.753" gradientUnits="userSpaceOnUse">
<stop stop-color="#FE3400"/>
<stop offset="1" stop-color="#FEC800"/>
</linearGradient>
<linearGradient id="paint11_linear" x1="472.514" y1="385.682" x2="474.01" y2="315.869" gradientUnits="userSpaceOnUse">
<stop stop-color="#FE3400"/>
<stop offset="1" stop-color="#FEC800"/>
</linearGradient>
<linearGradient id="paint12_linear" x1="522.202" y1="618.415" x2="466.352" y2="183.577" gradientUnits="userSpaceOnUse">
<stop stop-color="#3C0AFF"/>
<stop offset="1" stop-color="#B84FFF"/>
</linearGradient>
<linearGradient id="paint13_linear" x1="456.607" y1="731.786" x2="535.396" y2="222.149" gradientUnits="userSpaceOnUse">
<stop stop-color="#3C0AFF"/>
<stop offset="1" stop-color="#E261FF"/>
</linearGradient>
</defs>
</svg>
