<svg width="136" height="107" viewBox="0 0 136 107" fill="none" xmlns="http://www.w3.org/2000/svg">
<path d="M133.306 34.353L69.9283 0.518585C68.6328 -0.172862 67.0915 -0.172862 65.7956 0.518585L2.41848 34.353C0.932808 35.1463 0.000358772 36.7244 0 38.446C0 38.446 0 38.446 0 38.4464V56.1067C0 58.6533 2.00769 60.7188 4.48465 60.7188C6.96161 60.7188 8.9693 58.6533 8.9693 56.1067V46.0368L18.5819 51.1688V87.8966C18.5819 88.8585 18.8743 89.7965 19.4189 90.5794C19.8853 91.2498 31.2584 107 67.8621 107C104.466 107 115.838 91.2498 116.305 90.5794C116.849 89.7968 117.141 88.8585 117.141 87.8966V51.1688L133.306 42.5393C134.791 41.746 135.724 40.1676 135.724 38.446C135.724 36.7244 134.791 35.1463 133.306 34.353ZM108.171 86.116C105.193 89.06 94.1511 97.7765 67.8621 97.7765C41.5731 97.7765 30.5304 89.06 27.5519 86.116V55.9576L65.7959 76.3745C66.4439 76.7206 67.1528 76.8933 67.8621 76.8933C68.5714 76.8933 69.2811 76.7202 69.9283 76.3745L108.171 55.958V86.116ZM67.8621 67.0846L14.2189 38.4467L67.8621 9.80848L121.505 38.4467L67.8621 67.0846Z" fill="url(#paint0_linear)"/>
<path d="M4.48501 64.7851C2.00805 64.7851 0.000366211 66.8502 0.000366211 69.3972V74.975C0.000366211 77.522 2.00805 79.5871 4.48501 79.5871C6.96197 79.5871 8.96966 77.522 8.96966 74.975V69.3972C8.96966 66.8502 6.96197 64.7851 4.48501 64.7851Z" fill="url(#paint1_linear)"/>
<defs>
<linearGradient id="paint0_linear" x1="67.8619" y1="0" x2="67.8619" y2="107" gradientUnits="userSpaceOnUse">
<stop stop-color="#680013"/>
<stop offset="1"/>
</linearGradient>
<linearGradient id="paint1_linear" x1="4.48501" y1="64.7851" x2="4.48501" y2="79.5871" gradientUnits="userSpaceOnUse">
<stop stop-color="#680013"/>
<stop offset="1"/>
</linearGradient>
</defs>
</svg>
